STARTFONT 2.1
FONT -Bitstream-Terminal-Medium-R-Double Wide--18-140-100-100-C-220-ISO8859-1
SIZE 14 100 100
FONTBOUNDINGBOX 22 20 0 -5

STARTPROPERTIES 25
CHARSET_REGISTRY "ISO8859"
CHARSET_ENCODING "1"
CAP_HEIGHT 11
X_HEIGHT 9
AVERAGE_WIDTH 220
FONTNAME_REGISTRY ""
FAMILY_NAME "Terminal"
FOUNDRY "Bitstream"
WEIGHT_NAME "Medium"
SETWIDTH_NAME "Double Wide"
SLANT "R"
ADD_STYLE_NAME ""
PIXEL_SIZE 18
POINT_SIZE 140
RESOLUTION_X 100
RESOLUTION_Y 100
SPACING "C"
CHARSET_COLLECTIONS "ASCII ISO8859-1"
FULL_NAME "Terminal Double Wide"
COPYRIGHT "Copyright (c) 1988 Bitstream, Inc., Copyright 1990 Digital Equipment Corp. All rights reserved."
WEIGHT 10
QUAD_WIDTH 22
DEFAULT_CHAR 159
FONT_DESCENT 5
FONT_ASCENT 15
ENDPROPERTIES

CHARS 194

STARTCHAR space
ENCODING 32
SWIDTH 1131 0
DWIDTH 22 0
BBX 1 1 0 0
BITMAP
00
ENDCHAR

STARTCHAR exclam
ENCODING 33
SWIDTH 1131 0
DWIDTH 22 0
BBX 6 11 8 0
BITMAP
78
78
78
78
78
78
78
00
78
FC
78
ENDCHAR

STARTCHAR quotedbl
ENCODING 34
SWIDTH 1131 0
DWIDTH 22 0
BBX 12 6 5 7
BITMAP
F0F0
F0F0
F0F0
F0F0
F0F0
F0F0
ENDCHAR

STARTCHAR numbersign
ENCODING 35
SWIDTH 1131 0
DWIDTH 22 0
BBX 20 14 1 -3
BITMAP
0F0F00
0F0F00
0F0F00
0F0F00
FFFFF0
0F0F00
0F0F00
0F0F00
FFFFF0
0F0F00
0F0F00
0F0F00
0F0F00
0F0F00
ENDCHAR

STARTCHAR dollar
ENCODING 36
SWIDTH 1131 0
DWIDTH 22 0
BBX 16 16 3 -3
BITMAP
00C0
00C0
1FCF
7C3F
F00F
F000
7C00
1FFC
001F
000F
F00F
FC3E
F3F8
0300
0300
0300
ENDCHAR

STARTCHAR percent
ENCODING 37
SWIDTH 1131 0
DWIDTH 22 0
BBX 18 11 2 0
BITMAP
7F0000
E38000
C18000
E38380
7F1C00
00E000
073F80
3871C0
0060C0
0071C0
003F80
ENDCHAR

STARTCHAR ampersand
ENCODING 38
SWIDTH 1131 0
DWIDTH 22 0
BBX 14 11 4 0
BITMAP
0FB0
3C70
3800
3800
1C00
7E3C
F730
F3B0
F1F0
F0F0
7F3C
ENDCHAR

STARTCHAR quoteright
ENCODING 39
SWIDTH 1131 0
DWIDTH 22 0
BBX 7 5 7 8
BITMAP
3E
3C
78
F0
60
ENDCHAR

STARTCHAR parenleft
ENCODING 40
SWIDTH 1131 0
DWIDTH 22 0
BBX 8 15 7 -3
BITMAP
03
0E
1C
38
78
70
F0
F0
F0
70
78
38
1C
0E
03
ENDCHAR

STARTCHAR parenright
ENCODING 41
SWIDTH 1131 0
DWIDTH 22 0
BBX 8 15 7 -3
BITMAP
C0
70
38
1C
1E
0E
0F
0F
0F
0E
1E
1C
38
70
C0
ENDCHAR

STARTCHAR asterisk
ENCODING 42
SWIDTH 1131 0
DWIDTH 22 0
BBX 16 8 3 1
BITMAP
03C0
03C0
F3CF
3FFC
0FF0
0FF0
3C3C
381C
ENDCHAR

STARTCHAR plus
ENCODING 43
SWIDTH 1131 0
DWIDTH 22 0
BBX 16 10 3 0
BITMAP
03C0
03C0
03C0
03C0
FFFF
FFFF
03C0
03C0
03C0
03C0
ENDCHAR

STARTCHAR comma
ENCODING 44
SWIDTH 1131 0
DWIDTH 22 0
BBX 7 6 7 -3
BITMAP
3E
3C
78
78
F0
60
ENDCHAR

STARTCHAR minus
ENCODING 45
SWIDTH 1131 0
DWIDTH 22 0
BBX 18 2 2 4
BITMAP
FFFFC0
FFFFC0
ENDCHAR

STARTCHAR period
ENCODING 46
SWIDTH 1131 0
DWIDTH 22 0
BBX 8 3 7 0
BITMAP
7E
FF
7E
ENDCHAR

STARTCHAR slash
ENCODING 47
SWIDTH 1131 0
DWIDTH 22 0
BBX 16 14 3 -2
BITMAP
0007
000E
001C
0038
0070
00E0
01C0
0380
0700
0E00
1C00
3800
7000
E000
ENDCHAR

STARTCHAR zero
ENCODING 48
SWIDTH 1131 0
DWIDTH 22 0
BBX 15 11 3 0
BITMAP
0FE0
3C78
783C
F01E
F01E
F01E
F01E
F01E
783C
3C78
0FE0
ENDCHAR

STARTCHAR one
ENCODING 49
SWIDTH 1131 0
DWIDTH 22 0
BBX 12 11 5 0
BITMAP
1F00
3F00
6F00
CF00
0F00
0F00
0F00
0F00
0F00
0F00
FFF0
ENDCHAR

STARTCHAR two
ENCODING 50
SWIDTH 1131 0
DWIDTH 22 0
BBX 15 11 3 0
BITMAP
3FFC
F03E
F01E
001E
003C
0078
01E0
0380
0E00
3C1E
FFFE
ENDCHAR

STARTCHAR three
ENCODING 51
SWIDTH 1131 0
DWIDTH 22 0
BBX 15 11 3 0
BITMAP
3FFC
E03E
001E
001E
003C
07F0
003C
001E
001E
E03E
3FFC
ENDCHAR

STARTCHAR four
ENCODING 52
SWIDTH 1131 0
DWIDTH 22 0
BBX 14 11 4 0
BITMAP
03F0
07F0
0EF0
1CF0
38F0
70F0
E0F0
FFFC
00F0
00F0
03FC
ENDCHAR

STARTCHAR five
ENCODING 53
SWIDTH 1131 0
DWIDTH 22 0
BBX 15 11 3 0
BITMAP
FFF8
F000
F000
F000
FFF0
E03C
001E
001E
001E
F03C
3FF0
ENDCHAR

STARTCHAR six
ENCODING 54
SWIDTH 1131 0
DWIDTH 22 0
BBX 15 11 3 0
BITMAP
01FC
0F80
3C00
7800
F3F0
FC3C
F01E
F01E
F01E
783C
1FF0
ENDCHAR

STARTCHAR seven
ENCODING 55
SWIDTH 1131 0
DWIDTH 22 0
BBX 15 11 3 0
BITMAP
FFFE
F01E
003C
0038
0078
00F0
00E0
01E0
01C0
03C0
0780
ENDCHAR

STARTCHAR eight
ENCODING 56
SWIDTH 1131 0
DWIDTH 22 0
BBX 15 11 3 0
BITMAP
1FF0
783C
F01E
F01E
783C
1FF0
783C
F01E
F01E
783C
3FF8
ENDCHAR

STARTCHAR nine
ENCODING 57
SWIDTH 1131 0
DWIDTH 22 0
BBX 15 11 3 0
BITMAP
1FF0
783C
F01E
F01E
F01E
787E
1F9E
003C
0078
01E0
7F00
ENDCHAR

STARTCHAR colon
ENCODING 58
SWIDTH 1131 0
DWIDTH 22 0
BBX 8 9 7 0
BITMAP
7E
FF
7E
00
00
00
7E
FF
7E
ENDCHAR

STARTCHAR semicolon
ENCODING 59
SWIDTH 1131 0
DWIDTH 22 0
BBX 9 12 6 -3
BITMAP
3F00
7F80
3F00
0000
0000
0000
3E00
3C00
7800
7800
F000
6000
ENDCHAR

STARTCHAR less
ENCODING 60
SWIDTH 1131 0
DWIDTH 22 0
BBX 18 9 2 1
BITMAP
0003C0
003FC0
03FC00
3FC000
FC0000
3FC000
03FC00
003FC0
0003C0
ENDCHAR

STARTCHAR equal
ENCODING 61
SWIDTH 1131 0
DWIDTH 22 0
BBX 16 6 3 2
BITMAP
FFFF
FFFF
0000
0000
FFFF
FFFF
ENDCHAR

STARTCHAR greater
ENCODING 62
SWIDTH 1131 0
DWIDTH 22 0
BBX 18 9 2 1
BITMAP
F00000
FF0000
0FF000
00FF00
000FC0
00FF00
0FF000
FF0000
F00000
ENDCHAR

STARTCHAR question
ENCODING 63
SWIDTH 1131 0
DWIDTH 22 0
BBX 16 11 3 0
BITMAP
7FFE
F00F
000F
001F
01FC
0FE0
0F00
0000
0F00
1F80
0F00
ENDCHAR

STARTCHAR at
ENCODING 64
SWIDTH 1131 0
DWIDTH 22 0
BBX 20 14 1 -2
BITMAP
0FFC00
3C0700
780380
7003C0
F07FC0
F1C3C0
F3C3C0
F3C3C0
F3C3C0
F1FFF0
780000
780000
3E01C0
0FFF00
ENDCHAR

STARTCHAR A
ENCODING 65
SWIDTH 1131 0
DWIDTH 22 0
BBX 22 11 0 0
BITMAP
00FC00
01FE00
01CE00
03CF00
078780
070380
0F03C0
1FFFE0
1C00E0
3C00F0
FF87FC
ENDCHAR

STARTCHAR B
ENCODING 66
SWIDTH 1131 0
DWIDTH 22 0
BBX 18 11 2 0
BITMAP
FFFE00
3C0F00
3C0F00
3C0F00
3C0E00
3FFF80
3C03C0
3C03C0
3C03C0
3C03C0
FFFF80
ENDCHAR

STARTCHAR C
ENCODING 67
SWIDTH 1131 0
DWIDTH 22 0
BBX 18 11 2 0
BITMAP
0FF8C0
3C0FC0
7803C0
F001C0
F00000
F00000
F00000
F00000
7800C0
3C0780
0FFC00
ENDCHAR

STARTCHAR D
ENCODING 68
SWIDTH 1131 0
DWIDTH 22 0
BBX 18 11 2 0
BITMAP
FFFC00
3C0F00
3C0780
3C03C0
3C03C0
3C03C0
3C03C0
3C03C0
3C0780
3C0F00
FFFC00
ENDCHAR

STARTCHAR E
ENCODING 69
SWIDTH 1131 0
DWIDTH 22 0
BBX 18 11 2 0
BITMAP
FFFFC0
0F00C0
0F00C0
0F0C00
0F0C00
0FFC00
0F0C00
0F00C0
0F00C0
0F00C0
FFFFC0
ENDCHAR

STARTCHAR F
ENCODING 70
SWIDTH 1131 0
DWIDTH 22 0
BBX 18 11 2 0
BITMAP
FFFFC0
0F00C0
0F00C0
0F0C00
0F0C00
0FFC00
0F0C00
0F0C00
0F0000
0F0000
FFF000
ENDCHAR

STARTCHAR G
ENCODING 71
SWIDTH 1131 0
DWIDTH 22 0
BBX 20 11 1 0
BITMAP
0FF8C0
3C0FC0
7803C0
F001C0
F00000
F00000
F03FF0
F003C0
7803C0
3C03C0
0FFF00
ENDCHAR

STARTCHAR H
ENCODING 72
SWIDTH 1131 0
DWIDTH 22 0
BBX 18 11 2 0
BITMAP
FF3FC0
3C0F00
3C0F00
3C0F00
3C0F00
3FFF00
3C0F00
3C0F00
3C0F00
3C0F00
FF3FC0
ENDCHAR

STARTCHAR I
ENCODING 73
SWIDTH 1131 0
DWIDTH 22 0
BBX 16 11 3 0
BITMAP
FFFF
03C0
03C0
03C0
03C0
03C0
03C0
03C0
03C0
03C0
FFFF
ENDCHAR

STARTCHAR J
ENCODING 74
SWIDTH 1131 0
DWIDTH 22 0
BBX 18 11 2 0
BITMAP
0FFFC0
003C00
003C00
003C00
003C00
003C00
C03C00
C03C00
E03C00
F03C00
3FF800
ENDCHAR

STARTCHAR K
ENCODING 75
SWIDTH 1131 0
DWIDTH 22 0
BBX 18 11 2 0
BITMAP
FF3FC0
3C0F00
3C3C00
3CF000
3FE000
3FF000
3C7800
3C3C00
3C1E00
3C0F00
FF0FC0
ENDCHAR

STARTCHAR L
ENCODING 76
SWIDTH 1131 0
DWIDTH 22 0
BBX 18 11 2 0
BITMAP
FFF000
0F0000
0F0000
0F0000
0F0000
0F0000
0F0000
0F00C0
0F00C0
0F00C0
FFFFC0
ENDCHAR

STARTCHAR M
ENCODING 77
SWIDTH 1131 0
DWIDTH 22 0
BBX 22 11 0 0
BITMAP
FF03FC
3F87F0
3D86F0
3CCCF0
3CCCF0
3C78F0
3C78F0
3C30F0
3C30F0
3C00F0
FF03FC
ENDCHAR

STARTCHAR N
ENCODING 78
SWIDTH 1131 0
DWIDTH 22 0
BBX 20 11 1 0
BITMAP
FE0FF0
3F03C0
3D83C0
3CC3C0
3C63C0
3C33C0
3C33C0
3C1BC0
3C0FC0
3C07C0
FFC3C0
ENDCHAR

STARTCHAR O
ENCODING 79
SWIDTH 1131 0
DWIDTH 22 0
BBX 18 11 2 0
BITMAP
0FFC00
3C0F00
780780
F003C0
F003C0
F003C0
F003C0
F003C0
780780
3C0F00
0FFC00
ENDCHAR

STARTCHAR P
ENCODING 80
SWIDTH 1131 0
DWIDTH 22 0
BBX 18 11 2 0
BITMAP
FFFF80
0F03C0
0F03C0
0F03C0
0F03C0
0F03C0
0FFF80
0F0000
0F0000
0F0000
7FF000
ENDCHAR

STARTCHAR Q
ENCODING 81
SWIDTH 1131 0
DWIDTH 22 0
BBX 20 15 1 -4
BITMAP
0FFC00
3C0F00
780780
F003C0
F003C0
F003C0
F003C0
F003C0
780780
3C0F00
0FFC00
038000
030030
0FFFF0
0F1FC0
ENDCHAR

STARTCHAR R
ENCODING 82
SWIDTH 1131 0
DWIDTH 22 0
BBX 20 11 1 0
BITMAP
FFFF80
3C07C0
3C03C0
3C03C0
3C0780
3FFE00
3C1E00
3C0F00
3C0780
3C03C0
FF01F0
ENDCHAR

STARTCHAR S
ENCODING 83
SWIDTH 1131 0
DWIDTH 22 0
BBX 16 11 3 0
BITMAP
1FCF
7C3F
F00F
F000
7C00
1FFC
001F
000F
F00F
FC3E
F3F8
ENDCHAR

STARTCHAR T
ENCODING 84
SWIDTH 1131 0
DWIDTH 22 0
BBX 20 11 1 0
BITMAP
FFFFF0
C0F030
C0F030
C0F030
C0F030
00F000
00F000
00F000
00F000
00F000
07FE00
ENDCHAR

STARTCHAR U
ENCODING 85
SWIDTH 1131 0
DWIDTH 22 0
BBX 20 11 1 0
BITMAP
FF0FF0
3C03C0
3C03C0
3C03C0
3C03C0
3C03C0
3C03C0
3C03C0
1C0380
1E0780
07FE00
ENDCHAR

STARTCHAR V
ENCODING 86
SWIDTH 1131 0
DWIDTH 22 0
BBX 22 11 0 0
BITMAP
FF03FC
3C00F0
1E01E0
0F03C0
070380
078780
03CF00
01CE00
00FC00
007800
003000
ENDCHAR

STARTCHAR W
ENCODING 87
SWIDTH 1131 0
DWIDTH 22 0
BBX 22 11 0 0
BITMAP
FF87FC
3C00F0
3C00F0
3C30F0
3C30F0
1C78E0
1CFCE0
1DCEE0
1F87E0
0F03C0
0E01C0
ENDCHAR

STARTCHAR X
ENCODING 88
SWIDTH 1131 0
DWIDTH 22 0
BBX 18 11 2 0
BITMAP
FF3FC0
3C0F00
1E1E00
0F3C00
07F800
03F000
07F800
0F3C00
1E1E00
3C0F00
FF3FC0
ENDCHAR

STARTCHAR Y
ENCODING 89
SWIDTH 1131 0
DWIDTH 22 0
BBX 20 11 1 0
BITMAP
FF0FF0
3C03C0
1E0780
0F0F00
079E00
03FC00
01F800
00F000
00F000
00F000
07FE00
ENDCHAR

STARTCHAR Z
ENCODING 90
SWIDTH 1131 0
DWIDTH 22 0
BBX 16 11 3 0
BITMAP
7FFE
601E
603C
00F8
01F0
03E0
0780
1F00
3E03
FC03
FFFF
ENDCHAR

STARTCHAR bracketleft
ENCODING 91
SWIDTH 1131 0
DWIDTH 22 0
BBX 8 14 7 -2
BITMAP
FF
F0
F0
F0
F0
F0
F0
F0
F0
F0
F0
F0
F0
FF
ENDCHAR

STARTCHAR backslash
ENCODING 92
SWIDTH 1131 0
DWIDTH 22 0
BBX 16 14 2 -2
BITMAP
E000
7000
3800
1C00
0E00
0700
0380
01C0
00E0
0070
0038
001C
000E
0007
ENDCHAR

STARTCHAR bracketright
ENCODING 93
SWIDTH 1131 0
DWIDTH 22 0
BBX 8 14 7 -2
BITMAP
FF
0F
0F
0F
0F
0F
0F
0F
0F
0F
0F
0F
0F
FF
ENDCHAR

STARTCHAR asciicircum
ENCODING 94
SWIDTH 1131 0
DWIDTH 22 0
BBX 14 4 4 5
BITMAP
0300
0FC0
3CF0
F03C
ENDCHAR

STARTCHAR underscore
ENCODING 95
SWIDTH 1131 0
DWIDTH 22 0
BBX 20 2 2 0
BITMAP
FFFFF0
FFFFF0
ENDCHAR

STARTCHAR quoteleft
ENCODING 96
SWIDTH 1131 0
DWIDTH 22 0
BBX 12 5 5 8
BITMAP
F000
FC00
1F00
03C0
0070
ENDCHAR

STARTCHAR a
ENCODING 97
SWIDTH 1131 0
DWIDTH 22 0
BBX 18 9 2 0
BITMAP
1FFE00
780F00
000F00
1FFF00
780F00
F00F00
F00F00
F83F00
7FCFC0
ENDCHAR

STARTCHAR b
ENCODING 98
SWIDTH 1131 0
DWIDTH 22 0
BBX 18 12 2 0
BITMAP
FC0000
3C0000
3C0000
3CFE00
3F0F80
3C0780
3C03C0
3C03C0
3C03C0
3C0780
3F0F80
FCFE00
ENDCHAR

STARTCHAR c
ENCODING 99
SWIDTH 1131 0
DWIDTH 22 0
BBX 16 9 3 0
BITMAP
0FF3
3C1F
7807
F007
F000
F000
7803
3C0E
0FF8
ENDCHAR

STARTCHAR d
ENCODING 100
SWIDTH 1131 0
DWIDTH 22 0
BBX 18 12 2 0
BITMAP
00FF00
000F00
000F00
1FCF00
7C3F00
780F00
F00F00
F00F00
F00F00
780F00
7C3F00
1FCFC0
ENDCHAR

STARTCHAR e
ENCODING 101
SWIDTH 1131 0
DWIDTH 22 0
BBX 18 9 2 0
BITMAP
0FFC00
3C0F00
780780
F003C0
FFFFC0
F00000
780000
3C03C0
0FFE00
ENDCHAR

STARTCHAR f
ENCODING 102
SWIDTH 1131 0
DWIDTH 22 0
BBX 18 12 2 0
BITMAP
03FFC0
0F0000
0F0000
FFFF00
0F0000
0F0000
0F0000
0F0000
0F0000
0F0000
0F0000
7FF000
ENDCHAR

STARTCHAR g
ENCODING 103
SWIDTH 1131 0
DWIDTH 22 0
BBX 18 12 2 -3
BITMAP
1FCFC0
7C3F00
780F00
F00F00
F00F00
F00F00
780F00
7C3F00
1FCF00
000F00
000F00
3FFC00
ENDCHAR

STARTCHAR h
ENCODING 104
SWIDTH 1131 0
DWIDTH 22 0
BBX 18 12 2 0
BITMAP
FC0000
3C0000
3C0000
3CFC00
3F1E00
3C0F00
3C0F00
3C0F00
3C0F00
3C0F00
3C0F00
FF3FC0
ENDCHAR

STARTCHAR i
ENCODING 105
SWIDTH 1131 0
DWIDTH 22 0
BBX 16 13 3 0
BITMAP
03C0
03C0
0000
0000
3FC0
03C0
03C0
03C0
03C0
03C0
03C0
03C0
FFFF
ENDCHAR

STARTCHAR j
ENCODING 106
SWIDTH 1131 0
DWIDTH 22 0
BBX 11 16 4 -3
BITMAP
01E0
01E0
0000
0000
FFE0
01E0
01E0
01E0
01E0
01E0
01E0
01E0
01E0
01E0
01E0
FFC0
ENDCHAR

STARTCHAR k
ENCODING 107
SWIDTH 1131 0
DWIDTH 22 0
BBX 18 12 2 0
BITMAP
FC0000
3C0000
3C0000
3C7FC0
3C1E00
3C7800
3CE000
3FF000
3F3800
3C1C00
3C0F00
FC3FC0
ENDCHAR

STARTCHAR l
ENCODING 108
SWIDTH 1131 0
DWIDTH 22 0
BBX 14 12 4 0
BITMAP
7F80
0780
0780
0780
0780
0780
0780
0780
0780
0780
0780
FFFC
ENDCHAR

STARTCHAR m
ENCODING 109
SWIDTH 1131 0
DWIDTH 22 0
BBX 20 9 1 0
BITMAP
EFCFC0
F9F9E0
F0F0F0
F0F0F0
F0F0F0
F0F0F0
F0F0F0
F0F0F0
F0F0F0
ENDCHAR

STARTCHAR n
ENCODING 110
SWIDTH 1131 0
DWIDTH 22 0
BBX 18 9 2 0
BITMAP
FCFC00
3F1E00
3C0F00
3C0F00
3C0F00
3C0F00
3C0F00
3C0F00
FF3FC0
ENDCHAR

STARTCHAR o
ENCODING 111
SWIDTH 1131 0
DWIDTH 22 0
BBX 18 9 2 0
BITMAP
0FFC00
3C0F00
780780
F003C0
F003C0
F003C0
780780
3C0F00
0FFC00
ENDCHAR

STARTCHAR p
ENCODING 112
SWIDTH 1131 0
DWIDTH 22 0
BBX 18 12 2 -3
BITMAP
FCFE00
3F0F80
3C0780
3C03C0
3C03C0
3C03C0
3C0780
3F0F80
3CFE00
3C0000
3C0000
FFC000
ENDCHAR

STARTCHAR q
ENCODING 113
SWIDTH 1131 0
DWIDTH 22 0
BBX 18 12 2 -3
BITMAP
1FCFC0
7C3F00
780F00
F00F00
F00F00
F00F00
780F00
7C3F00
1FCF00
000F00
000F00
00FFC0
ENDCHAR

STARTCHAR r
ENCODING 114
SWIDTH 1131 0
DWIDTH 22 0
BBX 18 9 2 0
BITMAP
FF1FC0
0FE3C0
0F0000
0F0000
0F0000
0F0000
0F0000
0F0000
FFFC00
ENDCHAR

STARTCHAR s
ENCODING 115
SWIDTH 1131 0
DWIDTH 22 0
BBX 16 9 3 0
BITMAP
3FCF
F03F
F00F
F000
3FFC
000F
F00F
FC0F
F3FC
ENDCHAR

STARTCHAR t
ENCODING 116
SWIDTH 1131 0
DWIDTH 22 0
BBX 18 12 2 0
BITMAP
078000
078000
078000
FFFE00
078000
078000
078000
078000
078000
078000
0781C0
03FE00
ENDCHAR

STARTCHAR u
ENCODING 117
SWIDTH 1131 0
DWIDTH 22 0
BBX 18 9 2 0
BITMAP
FC3F00
3C0F00
3C0F00
3C0F00
3C0F00
3C0F00
3C0F00
3E3F00
1FCFC0
ENDCHAR

STARTCHAR v
ENCODING 118
SWIDTH 1131 0
DWIDTH 22 0
BBX 20 9 1 0
BITMAP
FF0FF0
3C03C0
1E0780
0E0700
070E00
079E00
03FC00
01F800
00F000
ENDCHAR

STARTCHAR w
ENCODING 119
SWIDTH 1131 0
DWIDTH 22 0
BBX 22 9 0 0
BITMAP
FE01FC
700038
783078
383070
3C78F0
1CFCE0
1FCFE0
0F87C0
0F03C0
ENDCHAR

STARTCHAR x
ENCODING 120
SWIDTH 1131 0
DWIDTH 22 0
BBX 18 9 2 0
BITMAP
FF3FC0
3C0F00
0F3C00
073800
03F000
0F3C00
0E1C00
3C0F00
FF3FC0
ENDCHAR

STARTCHAR y
ENCODING 121
SWIDTH 1131 0
DWIDTH 22 0
BBX 20 12 1 -3
BITMAP
FF0FF0
3C03C0
1E0780
0F0F00
070E00
039C00
01F800
00F000
00E000
01C000
038000
0FE000
ENDCHAR

STARTCHAR z
ENCODING 122
SWIDTH 1131 0
DWIDTH 22 0
BBX 14 9 4 0
BITMAP
FFFC
C03C
C0F8
01E0
07C0
0F00
3E0C
F80C
FFFC
ENDCHAR

STARTCHAR braceleft
ENCODING 123
SWIDTH 1131 0
DWIDTH 22 0
BBX 12 15 5 -2
BITMAP
07F0
0F00
0F00
0F00
0F00
0F00
1E00
F800
1E00
0F00
0F00
0F00
0F00
0F00
07F0
ENDCHAR

STARTCHAR bar
ENCODING 124
SWIDTH 1131 0
DWIDTH 22 0
BBX 4 16 9 -3
BITMAP
F0
F0
F0
F0
F0
F0
F0
F0
F0
F0
F0
F0
F0
F0
F0
F0
ENDCHAR

STARTCHAR braceright
ENCODING 125
SWIDTH 1131 0
DWIDTH 22 0
BBX 12 15 5 -2
BITMAP
FE00
0F00
0F00
0F00
0F00
0F00
0780
01F0
0780
0F00
0F00
0F00
0F00
0F00
FE00
ENDCHAR

STARTCHAR asciitilde
ENCODING 126
SWIDTH 1131 0
DWIDTH 22 0
BBX 14 3 4 6
BITMAP
7E0C
FFFC
C1F8
ENDCHAR

STARTCHAR OE
ENCODING 128
SWIDTH 1131 0
DWIDTH 22 0
BBX 22 11 0 0
BITMAP
0FFFFC
3C3C0C
783C0C
F03CCC
F03CC0
F03FC0
F03CC0
F03C0C
783C0C
3C3C0C
0FFFFC
ENDCHAR

STARTCHAR oe
ENCODING 129
SWIDTH 1131 0
DWIDTH 22 0
BBX 21 9 0 0
BITMAP
1FE7E0
787C70
F03878
F03878
F03FF8
F03800
F03800
787C38
1FDFE0
ENDCHAR

STARTCHAR Ydieresis
ENCODING 130
SWIDTH 1131 0
DWIDTH 22 0
BBX 20 15 1 0
BITMAP
1E0780
1E0780
000000
000000
FF0FF0
3C03C0
1E0780
0F0F00
079E00
03FC00
01F800
00F000
00F000
00F000
0FFF00
ENDCHAR

STARTCHAR Error
ENCODING 159
SWIDTH 1131 0
DWIDTH 22 0
BBX 20 19 1 -4
BITMAP
1FFF80
7FFFE0
FFFFF0
FC03F0
FC03F0
FC0000
FE0000
7F8000
1FF000
07FC00
01FE00
007E00
007E00
000000
000000
003C00
007E00
007E00
003C00
ENDCHAR

STARTCHAR exclamdown
ENCODING 161
SWIDTH 1131 0
DWIDTH 22 0
BBX 6 12 8 -1
BITMAP
78
FC
78
00
78
78
78
78
78
78
78
78
ENDCHAR

STARTCHAR cent
ENCODING 162
SWIDTH 1131 0
DWIDTH 22 0
BBX 16 13 3 -1
BITMAP
00C0
00C0
00C0
1FFB
7807
F003
F000
F000
F000
7807
1FFC
0180
0180
ENDCHAR

STARTCHAR sterling
ENCODING 163
SWIDTH 1131 0
DWIDTH 22 0
BBX 16 11 3 0
BITMAP
07FF
1E07
3C03
3C00
1E00
FFFC
0F00
0E00
1C00
FFE3
E1FE
ENDCHAR

STARTCHAR currency
ENCODING 164
SWIDTH 1131 0
DWIDTH 22 0
BBX 20 8 1 1
BITMAP
F000F0
3FFFC0
0E0700
0C0300
0C0300
0E0700
3FFFC0
F000F0
ENDCHAR

STARTCHAR yen
ENCODING 165
SWIDTH 1131 0
DWIDTH 22 0
BBX 20 11 1 0
BITMAP
FF0FF0
1C0380
0E0700
FF0FF0
039C00
01F800
FFFFF0
00F000
00F000
00F000
07FE00
ENDCHAR

STARTCHAR brokenbar
ENCODING 166
SWIDTH 1131 0
DWIDTH 22 0
BBX 4 16 9 -3
BITMAP
F0
F0
F0
F0
F0
F0
00
00
00
00
F0
F0
F0
F0
F0
F0
ENDCHAR

STARTCHAR section
ENCODING 167
SWIDTH 1131 0
DWIDTH 22 0
BBX 18 13 2 -2
BITMAP
0FFF00
3C0F00
3C0F00
FF0000
C3E000
F07C00
7C0F00
0F83C0
01F0C0
003DC0
3C0F80
3C0F00
3FFC00
ENDCHAR

STARTCHAR dieresis
ENCODING 168
SWIDTH 1131 0
DWIDTH 22 0
BBX 14 2 4 11
BITMAP
F03C
F03C
ENDCHAR

STARTCHAR copyright
ENCODING 169
SWIDTH 1131 0
DWIDTH 22 0
BBX 22 11 0 0
BITMAP
07FF80
3C00F0
70FC38
F3033C
F3003C
F3003C
F3003C
F3033C
70FC38
3C00F0
07FF80
ENDCHAR

STARTCHAR ordfeminine
ENCODING 170
SWIDTH 1131 0
DWIDTH 22 0
BBX 16 9 3 4
BITMAP
1FF8
303C
003C
7FFC
F03C
F07C
7F8F
0000
FFFE
ENDCHAR

STARTCHAR guillemotleft
ENCODING 171
SWIDTH 1131 0
DWIDTH 22 0
BBX 14 7 4 0
BITMAP
0C0C
3C3C
F0F0
F0F0
F0F0
3C3C
0C0C
ENDCHAR

STARTCHAR logicalnot
ENCODING 172
SWIDTH 1131 0
DWIDTH 22 0
BBX 16 5 3 2
BITMAP
FFFF
FFFF
000F
000F
000F
ENDCHAR

STARTCHAR hyphen
ENCODING 173
SWIDTH 1131 0
DWIDTH 22 0
BBX 18 2 2 4
BITMAP
FFFFC0
FFFFC0
ENDCHAR

STARTCHAR registered
ENCODING 174
SWIDTH 1131 0
DWIDTH 22 0
BBX 22 11 0 0
BITMAP
07FF80
3C00F0
73FC38
F3033C
F3033C
F3FC3C
F3033C
F3033C
730338
3C00F0
07FF80
ENDCHAR

STARTCHAR macron
ENCODING 175
SWIDTH 1131 0
DWIDTH 22 0
BBX 14 1 4 11
BITMAP
FFFC
ENDCHAR

STARTCHAR degree
ENCODING 176
SWIDTH 1131 0
DWIDTH 22 0
BBX 10 5 6 6
BITMAP
7F80
E1C0
C0C0
E1C0
7F80
ENDCHAR

STARTCHAR plusminus
ENCODING 177
SWIDTH 1131 0
DWIDTH 22 0
BBX 16 11 3 0
BITMAP
03C0
03C0
03C0
FFFF
FFFF
03C0
03C0
03C0
0000
FFFF
FFFF
ENDCHAR

STARTCHAR twosuperior
ENCODING 178
SWIDTH 1131 0
DWIDTH 22 0
BBX 10 7 6 6
BITMAP
3F00
C3C0
03C0
0F00
3C00
F0C0
FFC0
ENDCHAR

STARTCHAR threesuperior
ENCODING 179
SWIDTH 1131 0
DWIDTH 22 0
BBX 10 7 6 6
BITMAP
3F00
C3C0
03C0
0F00
03C0
C3C0
3F00
ENDCHAR

STARTCHAR acute
ENCODING 180
SWIDTH 1131 0
DWIDTH 22 0
BBX 10 3 6 10
BITMAP
0FC0
3E00
F000
ENDCHAR

STARTCHAR mu
ENCODING 181
SWIDTH 1131 0
DWIDTH 22 0
BBX 20 13 1 -4
BITMAP
3F00F0
0F00F0
0F00E0
0E01E0
1E01E0
1E01C0
1C03C0
3E0FC0
3FF3F0
380000
780000
700000
F00000
ENDCHAR

STARTCHAR paragraph
ENCODING 182
SWIDTH 1131 0
DWIDTH 22 0
BBX 18 13 2 -2
BITMAP
1FFFC0
7FCC00
FFCC00
FFCC00
FFCC00
7FCC00
1FCC00
00CC00
00CC00
00CC00
00CC00
00CC00
0FCFC0
ENDCHAR

STARTCHAR periodcentered
ENCODING 183
SWIDTH 1131 0
DWIDTH 22 0
BBX 8 4 7 3
BITMAP
7E
FF
FF
7E
ENDCHAR

STARTCHAR cedilla
ENCODING 184
SWIDTH 1131 0
DWIDTH 22 0
BBX 12 5 5 -5
BITMAP
0C00
0FE0
00F0
C0F0
7FE0
ENDCHAR

STARTCHAR onesuperior
ENCODING 185
SWIDTH 1131 0
DWIDTH 22 0
BBX 12 7 5 6
BITMAP
FF00
0F00
0F00
0F00
0F00
0F00
FFF0
ENDCHAR

STARTCHAR ordmasculine
ENCODING 186
SWIDTH 1131 0
DWIDTH 22 0
BBX 14 9 4 4
BITMAP
1FE0
7878
F03C
F03C
F03C
7878
1FE0
0000
FFFC
ENDCHAR

STARTCHAR guillemotright
ENCODING 187
SWIDTH 1131 0
DWIDTH 22 0
BBX 14 7 4 0
BITMAP
C0C0
F0F0
3C3C
3C3C
3C3C
F0F0
C0C0
ENDCHAR

STARTCHAR onequarter
ENCODING 188
SWIDTH 1131 0
DWIDTH 22 0
BBX 20 15 1 -4
BITMAP
FC0000
3C0000
3C0000
3C0000
3C0000
3C00F0
FF0FC0
00FC00
0FC3C0
FC0FC0
C033C0
00C3C0
03FFF0
0003C0
0003C0
ENDCHAR

STARTCHAR onehalf
ENCODING 189
SWIDTH 1131 0
DWIDTH 22 0
BBX 20 15 1 -4
BITMAP
FC0000
3C0000
3C0000
3C0000
3C0000
3C00F0
FF0FC0
00FC00
0FCFE0
FC30F0
C000F0
0003C0
000F00
003C30
003FF0
ENDCHAR

STARTCHAR threequarters
ENCODING 190
SWIDTH 1131 0
DWIDTH 22 0
BBX 20 15 1 -4
BITMAP
3F0000
C3C000
03C000
0F0000
03C000
C3C0F0
3F0FC0
00FC00
0FC3C0
FC0FC0
C033C0
00C3C0
03FFF0
0003C0
0003C0
ENDCHAR

STARTCHAR questiondown
ENCODING 191
SWIDTH 1131 0
DWIDTH 22 0
BBX 15 12 4 -1
BITMAP
01E0
03F0
01E0
0000
01E0
03E0
1FC0
7F00
FC00
F000
F03E
7FFC
ENDCHAR

STARTCHAR Agrave
ENCODING 192
SWIDTH 1131 0
DWIDTH 22 0
BBX 22 15 0 0
BITMAP
07E000
00F800
001E00
000000
00FC00
01FE00
01CE00
03CF00
078780
070380
0F03C0
1FFFE0
1C00E0
3C00F0
FF87FC
ENDCHAR

STARTCHAR Aacute
ENCODING 193
SWIDTH 1131 0
DWIDTH 22 0
BBX 22 15 0 0
BITMAP
001F80
007C00
01E000
000000
00FC00
01FE00
01CE00
03CF00
078780
070380
0F03C0
1FFFE0
1C00E0
3C00F0
FF87FC
ENDCHAR

STARTCHAR Acircumflex
ENCODING 194
SWIDTH 1131 0
DWIDTH 22 0
BBX 22 15 0 0
BITMAP
007800
01FE00
07CF80
000000
00FC00
01FE00
01CE00
03CF00
078780
070380
0F03C0
1FFFE0
1C00E0
3C00F0
FF87FC
ENDCHAR

STARTCHAR Atilde
ENCODING 195
SWIDTH 1131 0
DWIDTH 22 0
BBX 22 15 0 0
BITMAP
03FC30
0C3FC0
000000
000000
00FC00
01FE00
01CE00
03CF00
078780
070380
0F03C0
1FFFE0
1C00E0
3C00F0
FF87FC
ENDCHAR

STARTCHAR Adieresis
ENCODING 196
SWIDTH 1131 0
DWIDTH 22 0
BBX 22 15 0 0
BITMAP
0F03C0
0F03C0
000000
000000
00FC00
01FE00
01CE00
03CF00
078780
070380
0F03C0
1FFFE0
1C00E0
3C00F0
FF87FC
ENDCHAR

STARTCHAR Aring
ENCODING 197
SWIDTH 1131 0
DWIDTH 22 0
BBX 22 15 0 0
BITMAP
01FE00
038700
038700
038700
01FE00
00FE00
01CE00
03CF00
078780
070380
0F03C0
1FFFE0
1C00E0
3C00F0
FF87FC
ENDCHAR

STARTCHAR AE
ENCODING 198
SWIDTH 1131 0
DWIDTH 22 0
BBX 22 11 0 0
BITMAP
03FFFC
03FC0C
073C0C
073CCC
0E3CC0
0E3FC0
1C3CC0
1FFC0C
383C0C
383C0C
FCFFFC
ENDCHAR

STARTCHAR Ccedilla
ENCODING 199
SWIDTH 1131 0
DWIDTH 22 0
BBX 18 16 2 -5
BITMAP
0FF8C0
3C0FC0
7803C0
F001C0
F00000
F00000
F00000
F00000
7800C0
3C0780
0FFC00
00C000
00FE00
000F00
0C0F00
07FE00
ENDCHAR

STARTCHAR Egrave
ENCODING 200
SWIDTH 1131 0
DWIDTH 22 0
BBX 18 15 2 0
BITMAP
1F8000
03E000
007800
000000
FFFFC0
0F00C0
0F00C0
0F0C00
0F0C00
0FFC00
0F0C00
0F00C0
0F00C0
0F00C0
FFFFC0
ENDCHAR

STARTCHAR Eacute
ENCODING 201
SWIDTH 1131 0
DWIDTH 22 0
BBX 18 15 2 0
BITMAP
003F00
00F800
03C000
000000
FFFFC0
0F00C0
0F00C0
0F0C00
0F0C00
0FFC00
0F0C00
0F00C0
0F00C0
0F00C0
FFFFC0
ENDCHAR

STARTCHAR Ecircumflex
ENCODING 202
SWIDTH 1131 0
DWIDTH 22 0
BBX 18 15 2 0
BITMAP
00F000
03FC00
0F9F00
000000
FFFFC0
0F00C0
0F00C0
0F0C00
0F0C00
0FFC00
0F0C00
0F00C0
0F00C0
0F00C0
FFFFC0
ENDCHAR

STARTCHAR Edieresis
ENCODING 203
SWIDTH 1131 0
DWIDTH 22 0
BBX 18 15 2 0
BITMAP
3C0F00
3C0F00
000000
000000
FFFFC0
0F00C0
0F00C0
0F0C00
0F0C00
0FFC00
0F0C00
0F00C0
0F00C0
0F00C0
FFFFC0
ENDCHAR

STARTCHAR Igrave
ENCODING 204
SWIDTH 1131 0
DWIDTH 22 0
BBX 16 15 3 0
BITMAP
7E00
0F80
01E0
0000
FFFF
03C0
03C0
03C0
03C0
03C0
03C0
03C0
03C0
03C0
FFFF
ENDCHAR

STARTCHAR Iacute
ENCODING 205
SWIDTH 1131 0
DWIDTH 22 0
BBX 16 15 3 0
BITMAP
007E
01F0
0780
0000
FFFF
03C0
03C0
03C0
03C0
03C0
03C0
03C0
03C0
03C0
FFFF
ENDCHAR

STARTCHAR Icircumflex
ENCODING 206
SWIDTH 1131 0
DWIDTH 22 0
BBX 16 15 3 0
BITMAP
03C0
0FF0
3E7C
0000
FFFF
03C0
03C0
03C0
03C0
03C0
03C0
03C0
03C0
03C0
FFFF
ENDCHAR

STARTCHAR Idieresis
ENCODING 207
SWIDTH 1131 0
DWIDTH 22 0
BBX 16 15 3 0
BITMAP
781E
781E
0000
0000
FFFF
03C0
03C0
03C0
03C0
03C0
03C0
03C0
03C0
03C0
FFFF
ENDCHAR

STARTCHAR Eth
ENCODING 208
SWIDTH 1131 0
DWIDTH 22 0
BBX 20 11 1 0
BITMAP
3FFF00
0F03C0
0F01E0
0F00F0
0F00F0
FFFCF0
0F00F0
0F00F0
0F01E0
0F03C0
3FFF00
ENDCHAR

STARTCHAR Ntilde
ENCODING 209
SWIDTH 1131 0
DWIDTH 22 0
BBX 20 15 1 0
BITMAP
0FF0C0
30FF00
000000
000000
FC0FF0
3E03C0
3F03C0
3D83C0
3CC3C0
3C63C0
3C33C0
3C1BC0
3C0FC0
3C07C0
FFC3C0
ENDCHAR

STARTCHAR Ograve
ENCODING 210
SWIDTH 1131 0
DWIDTH 22 0
BBX 18 15 2 0
BITMAP
1F8000
03E000
007800
000000
0FFC00
3C0F00
780780
F003C0
F003C0
F003C0
F003C0
F003C0
780780
3C0F00
0FFC00
ENDCHAR

STARTCHAR Oacute
ENCODING 211
SWIDTH 1131 0
DWIDTH 22 0
BBX 18 15 2 0
BITMAP
007E00
01F000
078000
000000
0FFC00
3C0F00
780780
F003C0
F003C0
F003C0
F003C0
F003C0
780780
3C0F00
0FFC00
ENDCHAR

STARTCHAR Ocircumflex
ENCODING 212
SWIDTH 1131 0
DWIDTH 22 0
BBX 18 15 2 0
BITMAP
01E000
07F800
1E1E00
000000
0FFC00
3C0F00
780780
F003C0
F003C0
F003C0
F003C0
F003C0
780780
3C0F00
0FFC00
ENDCHAR

STARTCHAR Otilde
ENCODING 213
SWIDTH 1131 0
DWIDTH 22 0
BBX 18 15 2 0
BITMAP
0FF0C0
30FF00
000000
000000
0FFC00
3C0F00
780780
F003C0
F003C0
F003C0
F003C0
F003C0
780780
3C0F00
0FFC00
ENDCHAR

STARTCHAR Odieresis
ENCODING 214
SWIDTH 1131 0
DWIDTH 22 0
BBX 18 15 2 0
BITMAP
3C0F00
3C0F00
000000
000000
0FFC00
3C0F00
780780
F003C0
F003C0
F003C0
F003C0
F003C0
780780
3C0F00
0FFC00
ENDCHAR

STARTCHAR multiply
ENCODING 215
SWIDTH 1131 0
DWIDTH 22 0
BBX 14 8 4 1
BITMAP
E01C
F87C
3CF0
0FC0
0FC0
3CF0
F87C
E01C
ENDCHAR

STARTCHAR Oslash
ENCODING 216
SWIDTH 1131 0
DWIDTH 22 0
BBX 18 13 2 -1
BITMAP
000380
0FFF00
3C0F00
781F80
F03BC0
F073C0
F0E3C0
F1C3C0
F383C0
7F0780
3E0F00
3FFC00
700000
ENDCHAR

STARTCHAR Ugrave
ENCODING 217
SWIDTH 1131 0
DWIDTH 22 0
BBX 20 15 1 0
BITMAP
0FC000
01F000
003C00
000000
FF0FF0
3C03C0
3C03C0
3C03C0
3C03C0
3C03C0
3C03C0
3C03C0
1C0380
1E0780
07FE00
ENDCHAR

STARTCHAR Uacute
ENCODING 218
SWIDTH 1131 0
DWIDTH 22 0
BBX 20 15 1 0
BITMAP
003F00
00F800
03C000
000000
FF0FF0
3C03C0
3C03C0
3C03C0
3C03C0
3C03C0
3C03C0
3C03C0
1C0380
1E0780
07FE00
ENDCHAR

STARTCHAR Ucircumflex
ENCODING 219
SWIDTH 1131 0
DWIDTH 22 0
BBX 20 15 1 0
BITMAP
00F000
03FC00
0F9F00
000000
FF0FF0
3C03C0
3C03C0
3C03C0
3C03C0
3C03C0
3C03C0
3C03C0
1C0380
1E0780
07FE00
ENDCHAR

STARTCHAR Udieresis
ENCODING 220
SWIDTH 1131 0
DWIDTH 22 0
BBX 20 15 1 0
BITMAP
1E0780
1E0780
000000
000000
FF0FF0
3C03C0
3C03C0
3C03C0
3C03C0
3C03C0
3C03C0
3C03C0
1C0380
1E0780
07FE00
ENDCHAR

STARTCHAR Yacute
ENCODING 221
SWIDTH 1131 0
DWIDTH 22 0
BBX 20 15 1 0
BITMAP
001F80
007C00
01E000
000000
FF0FF0
3C03C0
1E0780
0F0F00
079E00
03FC00
01F800
00F000
00F000
00F000
07FE00
ENDCHAR

STARTCHAR Thorn
ENCODING 222
SWIDTH 1131 0
DWIDTH 22 0
BBX 18 11 2 0
BITMAP
FFFC00
0F0000
0FFF80
0F03C0
0F03C0
0F03C0
0F03C0
0F03C0
0FFF80
0F0000
FFFC00
ENDCHAR

STARTCHAR germandbls
ENCODING 223
SWIDTH 1131 0
DWIDTH 22 0
BBX 20 12 1 0
BITMAP
03FF80
0F03C0
0F03C0
0F03C0
0F03C0
0F3F80
0F01E0
0F00F0
0F00F0
0F00F0
0F00F0
FF3FE0
ENDCHAR

STARTCHAR agrave
ENCODING 224
SWIDTH 1131 0
DWIDTH 22 0
BBX 18 14 2 0
BITMAP
0FC000
01F000
003C00
000000
000000
1FFE00
780F00
000F00
1FFF00
780F00
F00F00
F00F00
F83F00
7FCFC0
ENDCHAR

STARTCHAR aacute
ENCODING 225
SWIDTH 1131 0
DWIDTH 22 0
BBX 18 14 2 0
BITMAP
007E00
01F000
078000
000000
000000
1FFE00
780F00
000F00
1FFF00
780F00
F00F00
F00F00
F83F00
7FCFC0
ENDCHAR

STARTCHAR acircumflex
ENCODING 226
SWIDTH 1131 0
DWIDTH 22 0
BBX 18 14 2 0
BITMAP
00C000
03F000
0F3C00
000000
000000
1FFE00
780F00
000F00
1FFF00
780F00
F00F00
F00F00
F83F00
7FCFC0
ENDCHAR

STARTCHAR atilde
ENCODING 227
SWIDTH 1131 0
DWIDTH 22 0
BBX 18 13 2 0
BITMAP
0FF0C0
30FF00
000000
000000
1FFE00
780F00
000F00
1FFF00
780F00
F00F00
F00F00
F83F00
7FCFC0
ENDCHAR

STARTCHAR adieresis
ENCODING 228
SWIDTH 1131 0
DWIDTH 22 0
BBX 18 13 2 0
BITMAP
3C0F00
3C0F00
000000
000000
1FFE00
780F00
000F00
1FFF00
780F00
F00F00
F00F00
F83F00
7FCFC0
ENDCHAR

STARTCHAR aring
ENCODING 229
SWIDTH 1131 0
DWIDTH 22 0
BBX 18 14 2 0
BITMAP
07FE00
0F0F00
0F0F00
07FE00
000000
1FFE00
780F00
000F00
1FFF00
780F00
F00F00
F00F00
F83F00
7FCFC0
ENDCHAR

STARTCHAR ae
ENCODING 230
SWIDTH 1131 0
DWIDTH 22 0
BBX 20 9 1 0
BITMAP
3FCFC0
E0F8E0
00F0F0
00F0F0
7FFFF0
F0F000
F0F000
F0F870
7F3FC0
ENDCHAR

STARTCHAR ccedilla
ENCODING 231
SWIDTH 1131 0
DWIDTH 22 0
BBX 16 14 3 -5
BITMAP
0FF3
3C1F
7807
F007
F000
F000
7803
3C0E
0FF8
0300
03F8
003C
303C
0FF8
ENDCHAR

STARTCHAR egrave
ENCODING 232
SWIDTH 1131 0
DWIDTH 22 0
BBX 18 14 2 0
BITMAP
1F8000
03E000
007800
000000
000000
0FFC00
3C0F00
780780
F003C0
FFFFC0
F00000
780000
3C03C0
0FFE00
ENDCHAR

STARTCHAR eacute
ENCODING 233
SWIDTH 1131 0
DWIDTH 22 0
BBX 18 14 2 0
BITMAP
003F00
00F800
03C000
000000
000000
0FFC00
3C0F00
780780
F003C0
FFFFC0
F00000
780000
3C03C0
0FFE00
ENDCHAR

STARTCHAR ecircumflex
ENCODING 234
SWIDTH 1131 0
DWIDTH 22 0
BBX 18 14 2 0
BITMAP
00C000
03F000
0F3C00
000000
000000
0FFC00
3C0F00
780780
F003C0
FFFFC0
F00000
780000
3C03C0
0FFE00
ENDCHAR

STARTCHAR edieresis
ENCODING 235
SWIDTH 1131 0
DWIDTH 22 0
BBX 18 13 2 0
BITMAP
3C0F00
3C0F00
000000
000000
0FFC00
3C0F00
780780
F003C0
FFFFC0
F00000
780000
3C03C0
0FFE00
ENDCHAR

STARTCHAR igrave
ENCODING 236
SWIDTH 1131 0
DWIDTH 22 0
BBX 16 14 3 0
BITMAP
3F00
07C0
00F0
0000
0000
3FC0
03C0
03C0
03C0
03C0
03C0
03C0
03C0
FFFF
ENDCHAR

STARTCHAR iacute
ENCODING 237
SWIDTH 1131 0
DWIDTH 22 0
BBX 16 14 3 0
BITMAP
00FC
03E0
0F00
0000
0000
3FC0
03C0
03C0
03C0
03C0
03C0
03C0
03C0
FFFF
ENDCHAR

STARTCHAR icircumflex
ENCODING 238
SWIDTH 1131 0
DWIDTH 22 0
BBX 16 14 3 0
BITMAP
0180
07E0
1E78
0000
0000
3FC0
03C0
03C0
03C0
03C0
03C0
03C0
03C0
FFFF
ENDCHAR

STARTCHAR idieresis
ENCODING 239
SWIDTH 1131 0
DWIDTH 22 0
BBX 16 13 3 0
BITMAP
F03C
F03C
0000
0000
3FC0
03C0
03C0
03C0
03C0
03C0
03C0
03C0
FFFF
ENDCHAR

STARTCHAR eth
ENCODING 240
SWIDTH 1131 0
DWIDTH 22 0
BBX 18 12 2 0
BITMAP
0FE700
00FC00
03BE00
000F00
0FFF80
780780
7003C0
F003C0
F003C0
F00380
780780
1FFE00
ENDCHAR

STARTCHAR ntilde
ENCODING 241
SWIDTH 1131 0
DWIDTH 22 0
BBX 18 13 2 0
BITMAP
1FE180
61FE00
000000
000000
FCFC00
3F1E00
3C0F00
3C0F00
3C0F00
3C0F00
3C0F00
3C0F00
FF3FC0
ENDCHAR

STARTCHAR ograve
ENCODING 242
SWIDTH 1131 0
DWIDTH 22 0
BBX 18 14 2 0
BITMAP
1F8000
03E000
007800
000000
000000
0FFC00
3C0F00
780780
F003C0
F003C0
F003C0
780780
3C0F00
0FFC00
ENDCHAR

STARTCHAR oacute
ENCODING 243
SWIDTH 1131 0
DWIDTH 22 0
BBX 18 14 2 0
BITMAP
007E00
01F000
078000
000000
000000
0FFC00
3C0F00
780780
F003C0
F003C0
F003C0
780780
3C0F00
0FFC00
ENDCHAR

STARTCHAR ocircumflex
ENCODING 244
SWIDTH 1131 0
DWIDTH 22 0
BBX 18 14 2 0
BITMAP
00C000
03F000
0F3C00
000000
000000
0FFC00
3C0F00
780780
F003C0
F003C0
F003C0
780780
3C0F00
0FFC00
ENDCHAR

STARTCHAR otilde
ENCODING 245
SWIDTH 1131 0
DWIDTH 22 0
BBX 18 13 2 0
BITMAP
1FE180
61FE00
000000
000000
0FFC00
3C0F00
780780
F003C0
F003C0
F003C0
780780
3C0F00
0FFC00
ENDCHAR

STARTCHAR odieresis
ENCODING 246
SWIDTH 1131 0
DWIDTH 22 0
BBX 18 13 2 0
BITMAP
3C0F00
3C0F00
000000
000000
0FFC00
3C0F00
780780
F003C0
F003C0
F003C0
780780
3C0F00
0FFC00
ENDCHAR

STARTCHAR divide
ENCODING 247
SWIDTH 1131 0
DWIDTH 22 0
BBX 16 8 3 1
BITMAP
03C0
03C0
0000
FFFF
FFFF
0000
03C0
03C0
ENDCHAR

STARTCHAR oslash
ENCODING 248
SWIDTH 1131 0
DWIDTH 22 0
BBX 20 10 1 -1
BITMAP
07FE70
1E07E0
3C07C0
781FE0
7879E0
79E1E0
3F81C0
1E0780
7FFE00
E00000
ENDCHAR

STARTCHAR ugrave
ENCODING 249
SWIDTH 1131 0
DWIDTH 22 0
BBX 18 14 2 0
BITMAP
1F8000
03E000
007800
000000
000000
FC3F00
3C0F00
3C0F00
3C0F00
3C0F00
3C0F00
3C0F00
3E3F00
1FCFC0
ENDCHAR

STARTCHAR uacute
ENCODING 250
SWIDTH 1131 0
DWIDTH 22 0
BBX 18 14 2 0
BITMAP
003F00
00F800
03C000
000000
000000
FC3F00
3C0F00
3C0F00
3C0F00
3C0F00
3C0F00
3C0F00
3E3F00
1FCFC0
ENDCHAR

STARTCHAR ucircumflex
ENCODING 251
SWIDTH 1131 0
DWIDTH 22 0
BBX 18 14 2 0
BITMAP
00C000
03F000
0F3C00
000000
000000
FC3F00
3C0F00
3C0F00
3C0F00
3C0F00
3C0F00
3C0F00
3E3F00
1FCFC0
ENDCHAR

STARTCHAR udieresis
ENCODING 252
SWIDTH 1131 0
DWIDTH 22 0
BBX 18 13 2 0
BITMAP
3C0F00
3C0F00
000000
000000
FC3F00
3C0F00
3C0F00
3C0F00
3C0F00
3C0F00
3C0F00
3E3F00
1FCFC0
ENDCHAR

STARTCHAR yacute
ENCODING 253
SWIDTH 1131 0
DWIDTH 22 0
BBX 20 17 1 -3
BITMAP
001F80
007C00
01E000
000000
000000
FF0FF0
3C03C0
1E0780
0F0F00
070E00
039C00
01F800
00F000
00E000
01C000
038000
0FE000
ENDCHAR

STARTCHAR thorn
ENCODING 254
SWIDTH 1131 0
DWIDTH 22 0
BBX 18 15 2 -3
BITMAP
FC0000
3C0000
3C0000
3CFE00
3F0F80
3C0780
3C03C0
3C03C0
3C03C0
3C0780
3F0F80
3CFE00
3C0000
3C0000
FFC000
ENDCHAR

STARTCHAR ydieresis
ENCODING 255
SWIDTH 1131 0
DWIDTH 22 0
BBX 20 16 1 -3
BITMAP
1E0780
1E0780
000000
000000
FF0FF0
3C03C0
1E0780
0F0F00
070E00
039C00
01F800
00F000
00E000
01C000
038000
0FE000
ENDCHAR
ENDFONT
